<svg width="48" height="48" viewBox="0 0 48 48" fill="none" xmlns="http://www.w3.org/2000/svg">
<g filter="url(#filter0_d_1857_38505)">
<circle cx="24" cy="22" r="20" fill="#FF9626"/>
<g clip-path="url(#clip0_1857_38505)">
<path d="M18.5025 33.1999C18.7634 33.1999 19.0112 33.1999 19.2525 33.1999C19.6438 33.1999 20.0351 33.1999 20.4264 33.1999C20.6155 33.1999 20.7525 33.2716 20.759 33.4738C20.7655 33.6955 20.6286 33.7738 20.4329 33.7803C20.3742 33.7803 20.3221 33.7803 20.2634 33.7803C17.746 33.7803 15.2221 33.7803 12.7047 33.7803C12.2547 33.7803 12.196 33.7216 12.196 33.2716C12.196 26.8934 12.196 20.5151 12.196 14.1434C12.1895 13.7194 12.2547 13.6542 12.6786 13.6542C14.3286 13.6542 15.9721 13.6542 17.6221 13.6542C17.7134 13.6542 17.7982 13.6542 17.9155 13.6542C17.9155 13.5499 17.9155 13.4651 17.9155 13.3738C17.9155 12.4738 17.9155 11.5803 17.9155 10.6803C17.9155 10.3021 18.0525 10.1977 18.4177 10.2955C21.7568 11.176 25.0895 12.0564 28.4286 12.9368C28.8329 13.0412 29.2308 13.1521 29.6286 13.2564C30.0003 13.3542 30.0395 13.3934 30.0395 13.7716C30.0395 14.7694 30.0395 15.7607 30.0395 16.7586C30.0395 16.8499 30.0395 16.9347 30.0395 17.0651C30.1503 17.0651 30.2482 17.0651 30.3395 17.0651C31.9895 17.0651 33.6329 17.0651 35.2829 17.0651C35.7134 17.0651 35.7721 17.1238 35.7721 17.5607C35.7721 22.8042 35.7721 28.0477 35.7721 33.2912C35.7721 33.7347 35.7134 33.7934 35.2568 33.7934C33.0786 33.7934 30.9003 33.7934 28.7286 33.7934C28.6568 33.7934 28.5786 33.7934 28.5068 33.7868C28.3242 33.7738 28.2134 33.676 28.2134 33.4934C28.2134 33.3107 28.3308 33.2129 28.5134 33.2129C28.7547 33.2064 29.0025 33.2129 29.2503 33.2064C29.3155 33.2064 29.3742 33.1934 29.459 33.1868C29.459 32.8999 29.459 32.6194 29.459 32.3455C29.459 32.1499 29.5308 32.0064 29.746 31.9999C29.9612 31.9999 30.0395 32.1434 30.046 32.339C30.046 32.6129 30.046 32.8934 30.046 33.1868C31.7612 33.1868 33.4568 33.1868 35.1721 33.1868C35.1721 28.0216 35.1721 22.8564 35.1721 17.6716C33.4764 17.6716 31.7742 17.6716 30.046 17.6716C30.046 17.7694 30.046 17.8607 30.046 17.9586C30.046 19.6542 30.046 21.3499 30.046 23.0455C30.046 23.1238 30.0721 23.2347 30.0264 23.2803C29.9482 23.3781 29.8242 23.5021 29.7264 23.4955C29.6351 23.489 29.5308 23.3455 29.4655 23.2347C29.4264 23.176 29.459 23.0781 29.459 22.9934C29.459 20.0325 29.459 17.0716 29.459 14.1107C29.459 14.0129 29.459 13.9151 29.459 13.8107C25.8003 12.8521 22.1677 11.8934 18.5025 10.9216C18.5025 11.0455 18.5025 11.1368 18.5025 11.2347C18.5025 15.1673 18.5025 19.0934 18.5025 23.026C18.5025 23.3781 18.4177 23.5216 18.2025 23.5216C18.0003 23.5216 17.9155 23.3716 17.9155 23.0194C17.9155 20.1955 17.9155 17.3781 17.9155 14.5542C17.9155 14.4564 17.9155 14.3651 17.9155 14.2542C16.2003 14.2542 14.5112 14.2542 12.796 14.2542C12.796 20.5607 12.796 26.8673 12.796 33.1868C14.4982 33.1868 16.1938 33.1868 17.9155 33.1868C17.9155 32.8934 17.9155 32.6194 17.9155 32.3455C17.9155 32.1499 17.9808 32.0064 18.196 31.9934C18.3851 31.9803 18.496 32.1108 18.5025 32.3521C18.5025 32.6194 18.5025 32.8999 18.5025 33.1999Z" fill="#F9FAFA" stroke="#F9FAFA" stroke-width="0.3"/>
<path d="M20.3678 25.452C21.2547 25.452 22.1156 25.452 22.9765 25.4455C23.0482 25.4455 23.1395 25.3803 23.1982 25.3216C23.7591 24.7803 24.3526 24.689 25.0504 25.0477C25.5721 25.3151 26.1134 25.5564 26.6026 25.8694C26.9939 26.1172 27.32 26.0325 27.6656 25.8238C27.6656 25.8107 27.6786 25.7911 27.6721 25.7781C27.4569 25.0933 27.8221 24.7803 28.3569 24.702C28.6243 24.6629 28.8786 24.5716 29.1395 24.5129C29.583 24.4216 29.8895 24.6107 29.9939 25.0542C30.2417 26.0585 30.483 27.0629 30.7308 28.0672C30.8678 28.6346 31.0113 29.2085 31.1482 29.7759C31.2786 30.3172 31.1026 30.6107 30.5547 30.7477C30.2873 30.8129 30.0134 30.8716 29.746 30.9433C29.4069 31.0411 29.12 30.989 28.8852 30.6759C28.6765 30.7672 28.4743 30.8585 28.2721 30.9498C28.4939 31.8107 28.07 32.2411 27.4765 32.3781C27.4243 33.2846 26.5178 33.7346 25.7678 33.1281C25.1613 33.8846 24.8156 33.9042 23.9417 33.2325C23.7721 33.3825 23.6221 33.5651 23.4395 33.6759C23.0613 33.8977 22.6113 33.7998 22.2591 33.4542C21.3004 32.4955 20.3417 31.5433 19.3895 30.5846C19.3243 30.5194 19.2721 30.4477 19.1939 30.3498C19.1482 30.4542 19.1286 30.5129 19.1026 30.5716C18.9721 30.8846 18.7178 31.0542 18.3852 30.989C17.9873 30.9107 17.5895 30.8194 17.1982 30.702C16.82 30.5846 16.683 30.2585 16.7939 29.8085C17.0743 28.6607 17.3547 27.5129 17.6352 26.3716C17.7395 25.9346 17.8439 25.5042 17.9547 25.0672C18.0656 24.6238 18.3656 24.4346 18.8156 24.5325C19.1156 24.5977 19.4156 24.6825 19.7156 24.7477C20.1069 24.8129 20.3286 25.0281 20.3678 25.452ZM20.2373 26.0455C20.2243 26.0781 20.2113 26.1042 20.2047 26.1238C19.9243 27.2716 19.6439 28.4129 19.37 29.5672C19.3569 29.6325 19.396 29.7368 19.4482 29.789C20.5243 30.8716 21.6004 31.9477 22.6765 33.0238C22.8786 33.2259 23.1134 33.2455 23.2765 33.0759C23.446 32.9064 23.4265 32.6846 23.2243 32.4759C22.97 32.2151 22.7091 31.9542 22.4482 31.6998C22.3047 31.5564 22.2395 31.3998 22.383 31.2303C22.5069 31.0803 22.6765 31.1064 22.8656 31.2955C22.9113 31.3411 22.9569 31.3868 23.0026 31.4325C23.5113 31.9411 24.0134 32.4498 24.5221 32.952C24.7308 33.1542 24.9591 33.1672 25.1221 32.9911C25.2852 32.8216 25.2656 32.6064 25.07 32.4042C24.6526 31.9803 24.2286 31.5629 23.8113 31.139C23.6939 31.0216 23.5765 30.9107 23.4656 30.7933C23.3417 30.6629 23.3286 30.5129 23.4526 30.3759C23.5765 30.239 23.7265 30.252 23.87 30.3694C23.9221 30.4085 23.9613 30.4607 24.0069 30.5064C24.7178 31.2172 25.4221 31.9281 26.1395 32.6259C26.2373 32.7238 26.4069 32.7955 26.5373 32.789C26.6417 32.7825 26.7786 32.652 26.8308 32.5411C26.9091 32.3846 26.8308 32.2281 26.7004 32.1042C26.0156 31.4259 25.3373 30.7477 24.6591 30.0629C24.6134 30.0172 24.5613 29.9716 24.5221 29.9259C24.4113 29.7825 24.3982 29.6325 24.5352 29.5085C24.6591 29.3911 24.8026 29.4042 24.933 29.5085C24.9852 29.5477 25.0243 29.5998 25.07 29.6455C25.7156 30.2911 26.3613 30.9368 27.0069 31.5825C27.2286 31.7977 27.4569 31.8238 27.6265 31.6607C27.796 31.4911 27.7765 31.2564 27.5613 31.0411C26.6026 30.0825 25.6504 29.1238 24.6917 28.1716C24.4504 27.9303 24.2873 27.9107 23.9939 28.0738C23.7395 28.2172 23.4917 28.3803 23.2373 28.5238C22.3569 29.0129 21.6591 28.9411 20.9091 28.2759C20.6613 28.0607 20.6547 27.9303 20.8895 27.689C21.346 27.2129 21.8091 26.7433 22.2721 26.2672C22.3308 26.2085 22.383 26.1433 22.4613 26.052C21.6982 26.0455 20.9808 26.0455 20.2373 26.0455ZM21.4765 27.9498C21.8873 28.2825 22.2656 28.3542 22.7156 28.139C23.0221 27.989 23.3091 27.8064 23.6091 27.6368C24.2613 27.252 24.6721 27.3042 25.2004 27.839C26.0352 28.6738 26.87 29.5151 27.7113 30.3433C27.77 30.402 27.8808 30.4738 27.9395 30.4542C28.2069 30.3564 28.4613 30.2325 28.7286 30.1151C28.4286 28.8759 28.1286 27.6629 27.8352 26.4303C27.7439 26.4629 27.6656 26.4825 27.5939 26.5151C27.2026 26.7042 26.8373 26.6651 26.4591 26.4498C25.9178 26.1368 25.3504 25.8694 24.7895 25.5825C24.2939 25.3281 23.9743 25.3803 23.583 25.7781C22.9439 26.4303 22.3113 27.089 21.6721 27.7411C21.6069 27.8064 21.5417 27.8781 21.4765 27.9498ZM19.7808 25.3607C19.4286 25.2759 19.1026 25.1977 18.7765 25.1064C18.6134 25.0607 18.5417 25.1129 18.5091 25.2759C18.3917 25.7846 18.2678 26.2868 18.1439 26.7955C17.896 27.8194 17.6482 28.8498 17.3873 29.8738C17.3352 30.0825 17.3873 30.1672 17.596 30.1998C17.8308 30.239 18.0591 30.2977 18.2808 30.3629C18.4765 30.4216 18.5678 30.3955 18.6134 30.1738C18.8417 29.1759 19.0895 28.1846 19.3373 27.1868C19.4808 26.5803 19.6308 25.9868 19.7808 25.3607ZM28.1808 25.3542C28.5852 27.0172 28.9765 28.6346 29.3678 30.252C29.4004 30.3955 29.4852 30.4085 29.6026 30.3759C29.8569 30.3107 30.1047 30.239 30.3591 30.1933C30.5808 30.1542 30.6265 30.0629 30.5678 29.8477C30.2352 28.5238 29.9156 27.1933 29.596 25.8694C29.5308 25.602 29.4591 25.3411 29.3873 25.0542C28.9765 25.1585 28.5917 25.2564 28.1808 25.3542Z" fill="#F9FAFA" stroke="#F9FAFA" stroke-width="0.3"/>
<path d="M21.646 20.4303C21.646 19.2499 21.646 18.0694 21.646 16.8825C21.646 16.7847 21.633 16.6673 21.6786 16.5955C21.7373 16.5107 21.8678 16.3999 21.9525 16.4129C22.0504 16.426 22.1482 16.5499 22.2199 16.6412C22.2525 16.6934 22.233 16.7847 22.233 16.8564C22.233 19.2303 22.233 21.5977 22.233 23.9716C22.233 24.0368 22.2525 24.1216 22.2264 24.1607C22.1547 24.2651 22.0699 24.3955 21.9656 24.4281C21.8091 24.4738 21.6917 24.3499 21.6591 24.1868C21.646 24.1086 21.646 24.0238 21.646 23.9455C21.646 22.7781 21.646 21.6042 21.646 20.4303Z" fill="#F9FAFA" stroke="#F9FAFA" stroke-width="0.3"/>
<path d="M26.3025 20.4042C26.3025 21.5585 26.3025 22.7194 26.3025 23.8737C26.3025 23.952 26.3286 24.0563 26.2895 24.115C26.2177 24.2128 26.1069 24.3498 26.009 24.3498C25.9112 24.3498 25.8069 24.2128 25.7286 24.115C25.6895 24.0694 25.7155 23.9715 25.7155 23.8998C25.7155 21.552 25.7155 19.2042 25.7155 16.8563C25.7155 16.7911 25.7155 16.7259 25.7221 16.6607C25.7482 16.4911 25.859 16.3737 26.0155 16.4063C26.1199 16.4324 26.2177 16.5629 26.2829 16.6672C26.3221 16.7259 26.296 16.8237 26.296 16.9085C26.3025 18.0759 26.3025 19.2433 26.3025 20.4042Z" fill="#F9FAFA" stroke="#F9FAFA" stroke-width="0.3"/>
<path d="M15.32 21.9302C15.0004 21.9302 14.6874 21.9302 14.3678 21.9302C14.1787 21.9302 14.0482 21.852 14.0417 21.6498C14.0352 21.4346 14.1722 21.3433 14.3678 21.3433C15.02 21.3367 15.6656 21.3367 16.3178 21.3433C16.5135 21.3433 16.6504 21.4346 16.6439 21.6498C16.6374 21.852 16.5004 21.9302 16.3178 21.9302C15.9852 21.9302 15.6526 21.9302 15.32 21.9302Z" fill="#F9FAFA" stroke="#F9FAFA" stroke-width="0.3"/>
<path d="M15.3461 26.0911C15.02 26.0911 14.6939 26.0911 14.3678 26.0911C14.1787 26.0911 14.0482 26.0129 14.0417 25.8107C14.0352 25.5955 14.1722 25.5042 14.3678 25.5042C15.02 25.4976 15.6656 25.4976 16.3178 25.5042C16.5135 25.5042 16.6504 25.5955 16.6439 25.8107C16.6374 26.0129 16.5069 26.0911 16.3178 26.0911C15.9982 26.0911 15.6722 26.0911 15.3461 26.0911Z" fill="#F9FAFA" stroke="#F9FAFA" stroke-width="0.3"/>
<path d="M15.32 17.7759C15.0004 17.7759 14.6874 17.7759 14.3678 17.7759C14.1787 17.7759 14.0482 17.7042 14.0417 17.4955C14.0352 17.2803 14.1722 17.189 14.3678 17.189C15.02 17.1825 15.6656 17.1825 16.3178 17.189C16.5135 17.189 16.6504 17.2803 16.6439 17.4955C16.6374 17.6977 16.5004 17.7759 16.3178 17.7759C15.9852 17.7759 15.6526 17.7759 15.32 17.7759Z" fill="#F9FAFA" stroke="#F9FAFA" stroke-width="0.3"/>
<path d="M32.6288 20.9779C32.8831 20.9779 33.1309 20.9779 33.3853 20.9779C33.5744 20.9779 33.7049 21.0627 33.7114 21.2584C33.7179 21.4606 33.5809 21.5519 33.3983 21.5584C32.8766 21.5649 32.3549 21.5649 31.8331 21.5584C31.6375 21.5584 31.5005 21.4606 31.5136 21.2453C31.5266 21.0432 31.6636 20.9714 31.8527 20.9779C32.107 20.9779 32.3679 20.9779 32.6288 20.9779Z" fill="#F9FAFA" stroke="#F9FAFA" stroke-width="0.3"/>
<path d="M32.5962 25.7128C32.3418 25.7128 32.094 25.7128 31.8397 25.7128C31.644 25.7128 31.5005 25.628 31.507 25.4128C31.5136 25.2106 31.6505 25.1323 31.8331 25.1323C32.3484 25.1323 32.857 25.1323 33.3723 25.1323C33.5679 25.1323 33.7114 25.2171 33.7049 25.4323C33.6984 25.6345 33.5614 25.7128 33.3723 25.7128C33.1179 25.7193 32.857 25.7128 32.5962 25.7128Z" fill="#F9FAFA" stroke="#F9FAFA" stroke-width="0.3"/>
<path d="M14.8961 30.2455C14.707 30.2455 14.5244 30.252 14.3352 30.2455C14.1526 30.239 14.0417 30.1411 14.0417 29.9585C14.0417 29.7694 14.1526 29.6716 14.3287 29.665C14.7004 29.6585 15.0787 29.6585 15.4504 29.665C15.6265 29.6716 15.7504 29.7759 15.7504 29.952C15.7504 30.1477 15.6265 30.2455 15.4309 30.2455C15.2548 30.2455 15.0722 30.2455 14.8961 30.2455Z" fill="#F9FAFA" stroke="#F9FAFA" stroke-width="0.3"/>
<path d="M32.9286 29.8672C32.7656 29.8672 32.6025 29.8737 32.4395 29.8672C32.2634 29.8607 32.146 29.7629 32.146 29.5803C32.146 29.4107 32.2503 29.2998 32.4199 29.2998C32.759 29.2868 33.0982 29.2868 33.4373 29.2998C33.6069 29.3063 33.7047 29.4172 33.7047 29.5868C33.7047 29.7563 33.6003 29.8607 33.4308 29.8672C33.2677 29.8737 33.0982 29.8672 32.9286 29.8672Z" fill="#F9FAFA" stroke="#F9FAFA" stroke-width="0.3"/>
</g>
</g>
<defs>
<filter id="filter0_d_1857_38505" x="0" y="0" width="48" height="48" filterUnits="userSpaceOnUse" color-interpolation-filters="sRGB">
<feFlood flood-opacity="0" result="BackgroundImageFix"/>
<feColorMatrix in="SourceAlpha" type="matrix" values="0 0 0 0 0 0 0 0 0 0 0 0 0 0 0 0 0 0 127 0" result="hardAlpha"/>
<feOffset dy="2"/>
<feGaussianBlur stdDeviation="2"/>
<feComposite in2="hardAlpha" operator="out"/>
<feColorMatrix type="matrix" values="0 0 0 0 0 0 0 0 0 0 0 0 0 0 0 0 0 0 0.1 0"/>
<feBlend mode="normal" in2="BackgroundImageFix" result="effect1_dropShadow_1857_38505"/>
<feBlend mode="normal" in="SourceGraphic" in2="effect1_dropShadow_1857_38505" result="shape"/>
</filter>
<clipPath id="clip0_1857_38505">
<rect width="24" height="24" fill="white" transform="translate(12 10)"/>
</clipPath>
</defs>
</svg>
